<mxfile host="app.diagrams.net" agent="Mozilla/5.0 (Windows NT 10.0; Win64; x64) AppleWebKit/537.36 (KHTML, like Gecko) Chrome/136.0.0.0 Safari/537.36 Edg/136.0.0.0" version="27.0.6">
  <diagram name="第 1 页" id="ZAhTf0Deg47HIRRzA-E9">
    <mxGraphModel dx="810" dy="469" grid="1" gridSize="10" guides="1" tooltips="1" connect="1" arrows="1" fold="1" page="1" pageScale="1" pageWidth="1169" pageHeight="1654" math="0" shadow="0">
      <root>
        <mxCell id="0" />
        <mxCell id="1" parent="0" />
        <mxCell id="po9GSimvA7Oc6_W8_0nq-1" value="&lt;font face=&quot;Comic Sans MS&quot; style=&quot;font-size: 18px;&quot;&gt;（H,?,T）&lt;/font&gt;" style="ellipse;shape=cloud;whiteSpace=wrap;html=1;fillColor=#f5f5f5;fontColor=#333333;strokeColor=#666666;" vertex="1" parent="1">
          <mxGeometry x="340" y="250" width="120" height="80" as="geometry" />
        </mxCell>
        <mxCell id="po9GSimvA7Oc6_W8_0nq-3" value="R(Potential)" style="text;html=1;align=center;verticalAlign=middle;whiteSpace=wrap;rounded=0;" vertex="1" parent="1">
          <mxGeometry x="330" y="220" width="60" height="30" as="geometry" />
        </mxCell>
        <mxCell id="po9GSimvA7Oc6_W8_0nq-5" value="" style="curved=1;endArrow=classic;html=1;rounded=0;exitX=1;exitY=0.5;exitDx=0;exitDy=0;entryX=0.625;entryY=0.2;entryDx=0;entryDy=0;entryPerimeter=0;" edge="1" parent="1" source="po9GSimvA7Oc6_W8_0nq-3" target="po9GSimvA7Oc6_W8_0nq-1">
          <mxGeometry width="50" height="50" relative="1" as="geometry">
            <mxPoint x="400" y="240" as="sourcePoint" />
            <mxPoint x="450" y="190" as="targetPoint" />
            <Array as="points">
              <mxPoint x="390" y="230" />
              <mxPoint x="430" y="235" />
            </Array>
          </mxGeometry>
        </mxCell>
        <mxCell id="po9GSimvA7Oc6_W8_0nq-7" value="" style="endArrow=classic;html=1;rounded=0;exitX=0.875;exitY=0.5;exitDx=0;exitDy=0;exitPerimeter=0;edgeStyle=orthogonalEdgeStyle;curved=1;" edge="1" parent="1" source="po9GSimvA7Oc6_W8_0nq-1">
          <mxGeometry width="50" height="50" relative="1" as="geometry">
            <mxPoint x="560" y="440" as="sourcePoint" />
            <mxPoint x="560" y="290" as="targetPoint" />
            <Array as="points">
              <mxPoint x="460" y="290" />
              <mxPoint x="460" y="280" />
              <mxPoint x="510" y="280" />
              <mxPoint x="510" y="290" />
            </Array>
          </mxGeometry>
        </mxCell>
        <mxCell id="po9GSimvA7Oc6_W8_0nq-11" value="Judge" style="edgeLabel;html=1;align=center;verticalAlign=middle;resizable=0;points=[];" vertex="1" connectable="0" parent="po9GSimvA7Oc6_W8_0nq-7">
          <mxGeometry x="0.2423" y="4" relative="1" as="geometry">
            <mxPoint x="-24" y="-19" as="offset" />
          </mxGeometry>
        </mxCell>
        <mxCell id="po9GSimvA7Oc6_W8_0nq-8" value="" style="shape=image;verticalLabelPosition=bottom;labelBackgroundColor=default;verticalAlign=top;aspect=fixed;imageAspect=0;editableCssRules=.*;image=data:image/svg+xml,PHN2ZyB4bWxucz0iaHR0cDovL3d3dy53My5vcmcvMjAwMC9zdmciIHdpZHRoPSIxLjAwMDAxOTg2ODIxNDkyNSIgdmlld0JveD0iMC4wMDAwNTA0MjU1Mjk0Nzk5ODA0NyAzLjAwMDI0MzY2Mzc4Nzg0MiAyNC4wMDA0NzY4MzcxNTgyMDMgMTcuNjYwMTkwNTgyMjc1MzkiIHN0eWxlPSJmbGV4Om5vbmU7bGluZS1oZWlnaHQ6MSIgaGVpZ2h0PSIwLjczNTg0MTI3NDI2MTQ3NDYiPjx0aXRsZT5EZWVwU2VlazwvdGl0bGU+PHBhdGggZmlsbD0iIzRENkJGRSIgZD0iTTIzLjc0OCA0LjQ4MmMtLjI1NC0uMTI0LS4zNjQuMTEzLS41MTIuMjM0LS4wNTEuMDM5LS4wOTQuMDktLjEzNy4xMzYtLjM3Mi4zOTctLjgwNi42NTctMS4zNzMuNjI2LS44MjktLjA0Ni0xLjUzNy4yMTQtMi4xNjMuODQ4LS4xMzMtLjc4Mi0uNTc1LTEuMjQ4LTEuMjQ3LTEuNTQ4LS4zNTItLjE1Ni0uNzA4LS4zMTEtLjk1NS0uNjUtLjE3Mi0uMjQxLS4yMTktLjUxLS4zMDUtLjc3NC0uMDU1LS4xNi0uMTEtLjMyMy0uMjkzLS4zNS0uMi0uMDMxLS4yNzguMTM2LS4zNTYuMjc2LS4zMTMuNTcyLS40MzQgMS4yMDItLjQyMiAxLjg0LjAyNyAxLjQzNi42MzMgMi41OCAxLjgzOCAzLjM5My4xMzcuMDkzLjE3Mi4xODcuMTI5LjMyMy0uMDgyLjI4LS4xOC41NTItLjI2Ni44MzMtLjA1NS4xNzktLjEzNy4yMTctLjMyOS4xNGE1LjUyNiA1LjUyNiAwIDAxLTEuNzM2LTEuMThjLS44NTctLjgyOC0xLjYzMS0xLjc0Mi0yLjU5Ny0yLjQ1OGExMS4zNjUgMTEuMzY1IDAgMDAtLjY4OS0uNDcxYy0uOTg1LS45NTcuMTMtMS43NDMuMzg4LTEuODM2LjI3LS4wOTguMDkzLS40MzItLjc3OS0uNDI4LS44NzIuMDA0LTEuNjcuMjk1LTIuNjg3LjY4NGEzLjA1NSAzLjA1NSAwIDAxLS40NjUuMTM3IDkuNTk3IDkuNTk3IDAgMDAtMi44ODMtLjEwMmMtMS44ODUuMjEtMy4zOSAxLjEwMi00LjQ5NyAyLjYyM0MuMDgyIDguNjA2LS4yMzEgMTAuNjg0LjE1MiAxMi44NWMuNDAzIDIuMjg0IDEuNTY5IDQuMTc1IDMuMzYgNS42NTMgMS44NTggMS41MzMgMy45OTcgMi4yODQgNi40MzggMi4xNCAxLjQ4Mi0uMDg1IDMuMTMzLS4yODQgNC45OTQtMS44Ni40Ny4yMzQuOTYyLjMyNyAxLjc4LjM5Ny42My4wNTkgMS4yMzYtLjAzIDEuNzA1LS4xMjguNzM1LS4xNTYuNjg0LS44MzcuNDE5LS45NjEtMi4xNTUtMS4wMDQtMS42ODItLjU5NS0yLjExMy0uOTI2IDEuMDk2LTEuMjk2IDIuNzQ2LTIuNjQyIDMuMzkyLTcuMDAzLjA1LS4zNDcuMDA3LS41NjUgMC0uODQ1LS4wMDQtLjE3LjAzNS0uMjM3LjIzLS4yNTZhNC4xNzMgNC4xNzMgMCAwMDEuNTQ1LS40NzVjMS4zOTYtLjc2MyAxLjk2LTIuMDE1IDIuMDkzLTMuNTE3LjAyLS4yMy0uMDA0LS40NjctLjI0Ny0uNTg4ek0xMS41ODEgMThjLTIuMDg5LTEuNjQyLTMuMTAyLTIuMTgzLTMuNTItMi4xNi0uMzkyLjAyNC0uMzIxLjQ3MS0uMjM1Ljc2My4wOS4yODguMjA3LjQ4Ni4zNzEuNzM5LjExNC4xNjcuMTkyLjQxNi0uMTEzLjYwMy0uNjczLjQxNi0xLjg0Mi0uMTQtMS44OTctLjE2Ny0xLjM2MS0uODAyLTIuNS0xLjg2LTMuMzAxLTMuMzA3LS43NzQtMS4zOTMtMS4yMjQtMi44ODctMS4yOTgtNC40ODItLjAyLS4zODYuMDkzLS41MjIuNDc3LS41OTJhNC42OTYgNC42OTYgMCAwMTEuNTI5LS4wMzljMi4xMzIuMzEyIDMuOTQ2IDEuMjY1IDUuNDY4IDIuNzc0Ljg2OC44NiAxLjUyNSAxLjg4NyAyLjIwMiAyLjg5MS43MiAxLjA2NiAxLjQ5NCAyLjA4MiAyLjQ4IDIuOTE0LjM0OC4yOTIuNjI1LjUxNC44OTEuNjc3LS44MDIuMDktMi4xNC4xMS0zLjA1NC0uNjE0em0xLTYuNDRhLjMwNi4zMDYgMCAwMS40MTUtLjI4Ny4zMDIuMzAyIDAgMDEuMi4yODguMzA2LjMwNiAwIDAxLS4zMS4zMDcuMzAzLjMwMyAwIDAxLS4zMDQtLjMwOHptMy4xMSAxLjU5NmMtLjIuMDgxLS4zOTkuMTUxLS41OS4xNmExLjI0NSAxLjI0NSAwIDAxLS43OTgtLjI1NGMtLjI3NC0uMjMtLjQ3LS4zNTgtLjU1Mi0uNzU4YTEuNzMgMS43MyAwIDAxLjAxNi0uNTg4Yy4wNy0uMzI3LS4wMDgtLjUzNy0uMjM5LS43MjctLjE4Ny0uMTU2LS40MjYtLjE5OS0uNjg4LS4xOTlhLjU1OS41NTkgMCAwMS0uMjU0LS4wNzhjLS4xMS0uMDU0LS4yLS4xOS0uMTE0LS4zNTguMDI4LS4wNTQuMTYtLjE4Ni4xOTItLjIxLjM1Ni0uMjAyLjc2Ny0uMTM2IDEuMTQ2LjAxNi4zNTIuMTQ0LjYxOC40MDggMS4wMDEuNzgyLjM5MS40NTEuNDYyLjU3Ni42ODUuOTE0LjE3Ni4yNjUuMzM2LjUzNy40NDUuODQ4LjA2Ny4xOTUtLjAxOS4zNTQtLjI1LjQ1MnoiLz48L3N2Zz4=;" vertex="1" parent="1">
          <mxGeometry x="470" y="290" width="40" height="40" as="geometry" />
        </mxCell>
      </root>
    </mxGraphModel>
  </diagram>
</mxfile>
